<svg xmlns="http://www.w3.org/2000/svg" xmlns:xlink="http://www.w3.org/1999/xlink" version="1.1" id="Your_Icon" x="0px" y="0px" width="100px" height="100px" viewBox="0 0 100 100" enable-background="new 0 0 100 100" xml:space="preserve">
<path fill="#000000" d="M50.001-0.001C22.431-0.001,0,22.432,0,50c0,27.569,22.431,50.001,50.001,50.001  C77.573,100.001,100,77.569,100,50S77.57-0.001,50.001-0.001z M50.001,89.625c-21.849,0-39.625-17.776-39.625-39.625  c0-21.851,17.777-39.626,39.625-39.626c21.851,0,39.626,17.775,39.626,39.626C89.627,71.847,71.852,89.625,50.001,89.625z"/>
<path d="M57.003,44.32c-0.41-0.401-0.841-0.75-1.326-1.08L25.346,24.486c-0.163-0.101-0.345-0.149-0.525-0.149  c-0.259,0-0.515,0.1-0.708,0.293c-0.328,0.328-0.388,0.838-0.144,1.233l18.725,30.291c0.354,0.526,0.707,0.959,1.102,1.357  c1.765,1.765,4.108,2.735,6.601,2.735c2.493,0,4.836-0.971,6.601-2.731C60.625,53.877,60.626,47.959,57.003,44.32z"/>
</svg>